<svg xmlns="http://www.w3.org/2000/svg" version="1.1" xmlns:xlink="http://www.w3.org/1999/xlink" xmlns:svgjs="http://svgjs.dev/svgjs" width="1500" height="1500" viewBox="0 0 1500 1500"><rect width="1500" height="1500" fill="#ffffff"></rect><g transform="matrix(0.6666666666666666,0,0,0.6666666666666666,249.39393939393932,651.3701345300749)"><svg viewBox="0 0 396 78" data-background-color="#ffffff" preserveAspectRatio="xMidYMid meet" height="295" width="1500" xmlns="http://www.w3.org/2000/svg" xmlns:xlink="http://www.w3.org/1999/xlink"><g id="tight-bounds" transform="matrix(1,0,0,1,0.24000000000003752,0.11760766095335384)"><svg viewBox="0 0 395.5199999999999 77.76478467809332" height="77.76478467809332" width="395.5199999999999"><g><svg viewBox="0 0 518.7641329043149 101.99631142299212" height="77.76478467809332" width="395.5199999999999"><g transform="matrix(1,0,0,1,123.24413290431495,5.9960769713385815)"><svg viewBox="0 0 395.52 90.00415748031496" height="90.00415748031496" width="395.52"><g id="textblocktransform"><svg viewBox="0 0 395.52 90.00415748031496" height="90.00415748031496" width="395.52" id="textblock"><g><svg viewBox="0 0 395.52 90.00415748031496" height="90.00415748031496" width="395.52"><g transform="matrix(1,0,0,1,0,0)"><svg width="395.52" viewBox="1.9 -42.95 190.48 43.35" height="90.00415748031496" data-palette-color="#335a02"><path d="M10.55 0L1.9 0 1.9-42.95 19.1-42.95 19.1-34.6 10.55-34.6 10.55-27.75 18.65-27.75 18.65-19.5 10.55-19.5 10.55 0ZM31.8 0.4Q26.5 0.4 23.92-2.6 21.35-5.6 21.35-11.5L21.35-11.5 21.35-42.95 29.7-42.95 29.7-11.85Q29.7-9.8 30.1-8.65 30.5-7.5 31.8-7.5L31.8-7.5Q33.1-7.5 33.5-8.63 33.9-9.75 33.9-11.85L33.9-11.85 33.9-42.95 42.25-42.95 42.25-11.5Q42.25-5.6 39.67-2.6 37.1 0.4 31.8 0.4L31.8 0.4ZM45.55 0L45.55-42.95 58.75-42.95Q61.9-42.95 63.62-41.53 65.35-40.1 65.95-37.52 66.55-34.95 66.55-30.95L66.55-30.95Q66.55-27.3 65.6-25.25 64.65-23.2 62.3-22.4L62.3-22.4Q64.25-22 65.12-20.45 66-18.9 66-16.25L66-16.25 65.9 0 57.5 0 57.5-16.8Q57.5-18.6 56.8-19.1 56.1-19.6 54.25-19.6L54.25-19.6 54.25 0 45.55 0ZM54.3-27.05L56.35-27.05Q58.15-27.05 58.15-30.95L58.15-30.95Q58.15-32.65 58-33.5 57.85-34.35 57.45-34.68 57.05-35 56.3-35L56.3-35 54.3-35 54.3-27.05ZM77.79 0L69.39 0 69.39-42.95 78.24-42.95 82.19-22.4 82.19-42.95 90.49-42.95 90.49 0 82.09 0 77.79-21.5 77.79 0ZM102.19 0L93.89 0 93.89-42.95 102.19-42.95 102.19 0ZM105.64 0L105.64-42.95 118.84-42.95Q121.99-42.95 123.71-41.53 125.44-40.1 126.04-37.52 126.64-34.95 126.64-30.95L126.64-30.95Q126.64-27.3 125.69-25.25 124.74-23.2 122.39-22.4L122.39-22.4Q124.34-22 125.21-20.45 126.09-18.9 126.09-16.25L126.09-16.25 125.99 0 117.59 0 117.59-16.8Q117.59-18.6 116.89-19.1 116.19-19.6 114.34-19.6L114.34-19.6 114.34 0 105.64 0ZM114.39-27.05L116.44-27.05Q118.24-27.05 118.24-30.95L118.24-30.95Q118.24-32.65 118.09-33.5 117.94-34.35 117.54-34.68 117.14-35 116.39-35L116.39-35 114.39-35 114.39-27.05ZM147.24 0L129.49 0 129.49-42.95 146.69-42.95 146.69-34.65 138.24-34.65 138.24-26.3 146.34-26.3 146.34-18.2 138.24-18.2 138.24-8.35 147.24-8.35 147.24 0ZM158.48 0L150.08 0 150.08-42.95 158.93-42.95 162.88-22.4 162.88-42.95 171.18-42.95 171.18 0 162.78 0 158.48-21.5 158.48 0ZM187.28 0L178.68 0 178.68-34.7 173.58-34.7 173.58-42.95 192.38-42.95 192.38-34.7 187.28-34.7 187.28 0Z" opacity="1" transform="matrix(1,0,0,1,0,0)" fill="#335a02" class="wordmark-text-0" data-fill-palette-color="primary" id="text-0"></path></svg></g></svg></g></svg></g></svg></g><g><svg viewBox="0 0 101.99631142299212 101.99631142299212" height="101.99631142299212" width="101.99631142299212"><g><svg xmlns="http://www.w3.org/2000/svg" xmlns:xlink="http://www.w3.org/1999/xlink" version="1.0" x="0" y="0" viewBox="20 20 60 60" enable-background="new 0 0 100 100" xml:space="preserve" height="101.99631142299212" width="101.99631142299212" class="icon-icon-0" data-fill-palette-color="accent" id="icon-0"><path d="M20 26.667A6.67 6.67 0 0 1 26.667 33.334V63.334C26.667 72.539 34.128 80 43.333 80S60 72.539 60 63.334V40A3.33 3.33 0 0 1 63.333 36.667 3.33 3.33 0 0 1 66.667 40V56.666C66.667 64.023 72.637 70 80 70V63.334A6.67 6.67 0 0 1 73.333 56.666V40C73.333 34.476 68.854 30 63.333 30S53.333 34.476 53.333 40V63.334C53.333 68.857 48.854 73.334 43.333 73.334S33.333 68.857 33.333 63.334V33.334C33.333 25.973 27.363 20 20 20z" fill="#99a28e" data-fill-palette-color="accent"></path></svg></g></svg></g></svg></g><defs></defs></svg><rect width="395.5199999999999" height="77.76478467809332" fill="none" stroke="none" visibility="hidden"></rect></g></svg></g></svg>